<svg width="20" height="19" viewBox="0 0 20 19" fill="none" xmlns="http://www.w3.org/2000/svg">
<path d="M7.5332 6.96899L2.37939 7.7619L6.93851 11.429L5.74917 16.9793L9.91187 13.8077L15.0657 16.9793L13.6781 11.429L17.5435 7.7619L12.2906 6.96899L9.91187 1.81519L7.5332 6.96899Z" fill="#FFA000"/>
<path d="M9.99146 13.1764L6.35318 15.3729L7.31113 11.2314L4.09861 8.44468L8.33681 8.08666L9.99146 4.17744L11.6461 8.08666L15.8843 8.44468L12.6718 11.2314L13.6297 15.3729M19.6677 7.22547L12.7105 6.63522L9.99146 0.219849L7.27242 6.63522L0.315186 7.22547L5.58875 11.8023L4.01152 18.6048L9.99146 14.9955L15.9714 18.6048L14.3845 11.8023L19.6677 7.22547Z" fill="#455A64"/>
</svg>
